<?xml version="1.0" standalone="no"?>
<!DOCTYPE svg PUBLIC "-//W3C//DTD SVG 1.1//EN" "http://www.w3.org/Graphics/SVG/1.1/DTD/svg11.dtd" >
<svg xmlns="http://www.w3.org/2000/svg">
<metadata>Generated by IcoMoon</metadata>
<defs>
<font id="icomoon" horiz-adv-x="1024">
<font-face units-per-em="1024" ascent="960" descent="-64" />
<missing-glyph horiz-adv-x="1024" />
<glyph unicode="&#x20;" horiz-adv-x="512" d="" />
<glyph unicode="&#xe900;" glyph-name="minus" d="M1024 374.869h-1024v146.261h1024z" />
<glyph unicode="&#xe901;" glyph-name="article-icon" d="M0 960v-1024h1024v1024zM625.792 163.541h-398.251v113.792h398.208zM796.459 391.083h-568.917v113.792h568.917zM796.459 618.624h-568.917v113.835h568.917z" />
<glyph unicode="&#xe902;" glyph-name="basket-icon" d="M999.509 765.696c-18.557 20.682-45.371 33.634-75.21 33.634-0.559 0-1.117-0.005-1.674-0.014l0.084 0.001h-736.085l-7.424 54.997c-2.361 53.763-42.384 97.506-94.219 105.604l-0.629 0.081h-54.059c-16.566 0-29.995-13.429-29.995-29.995s13.429-29.995 29.995-29.995v0h54.059c9.728 0 30.293-20.352 34.773-53.589l86.699-644.267c4.599-30.134 19.738-56.095 41.468-74.522l0.175-0.145c15.921-13.973 35.61-24.038 57.345-28.491l0.81-0.139c-8.459-15.112-13.44-33.16-13.44-52.371 0-0.038 0-0.076 0-0.115v0.006c0-61.538 49.886-111.424 111.424-111.424s111.424 49.886 111.424 111.424v0c0 0.017 0 0.037 0 0.057 0 18.382-4.562 35.698-12.616 50.878l0.285-0.589h158.635c-7.769-14.591-12.331-31.907-12.331-50.289 0-0.020 0-0.040 0-0.061v0.003c0-61.538 49.886-111.424 111.424-111.424s111.424 49.886 111.424 111.424v0c0 0.017 0 0.037 0 0.057 0 18.382-4.562 35.698-12.616 50.878l0.285-0.589h79.147c16.566 0 29.995 13.429 29.995 29.995s-13.429 29.995-29.995 29.995v0h-610.944c-30.994 0.993-56.425 23.602-61.765 53.195l-0.059 0.394-6.315 46.933h598.016c30.91 0.295 59.048 11.922 80.514 30.919l-0.13-0.113c21.872 18.634 36.961 44.659 41.39 74.172l0.082 0.666 43.435 322.731c0.703 4.428 1.104 9.533 1.104 14.732 0 25.044-9.313 47.913-24.664 65.333l0.094-0.108zM454.229 46.336c0.001-0.139 0.002-0.304 0.002-0.469 0-28.065-22.751-50.816-50.816-50.816s-50.816 22.751-50.816 50.816c0 28.064 22.75 50.815 50.814 50.816v0c0.064 0 0.139 0 0.214 0 27.866 0 50.475-22.505 50.644-50.331v-0.016zM811.136 46.336c0.001-0.139 0.002-0.304 0.002-0.469 0-28.065-22.751-50.816-50.816-50.816s-50.816 22.751-50.816 50.816c0 28.064 22.75 50.815 50.814 50.816v0c0.064 0 0.139 0 0.214 0 27.866 0 50.475-22.505 50.644-50.331v-0.016zM953.941 726.187c5.933-6.944 9.543-16.027 9.543-25.954 0-2.316-0.197-4.587-0.574-6.795l0.034 0.237-18.219-135.339h-206.123l12.331 180.992h171.776c0.386 0.013 0.84 0.021 1.296 0.021 11.873 0 22.565-5.057 30.040-13.135l0.025-0.027zM523.733 317.355l-12.203 180.992h162.133l-12.203-180.992zM507.52 558.336l-12.16 180.992h194.731l-12.16-180.992zM434.603 739.328l12.16-180.992h-227.712l-24.363 180.992zM227.115 498.347h223.701l12.203-180.992h-211.541zM857.6 317.355h-135.211l12.203 180.992h202.069l-17.067-127.403c-5.411-30.043-30.93-52.679-61.9-53.587l-0.094-0.002z" />
<glyph unicode="&#xe903;" glyph-name="bottom-nav-home" d="M1006.933 505.088l-86.613 82.901v274.987c0.006 0.232 0.010 0.505 0.010 0.778 0 16.802-13.396 30.476-30.091 30.922l-0.041 0.001h-208.213c-16.736-0.447-30.132-14.121-30.132-30.923 0-0.274 0.004-0.547 0.011-0.819l-0.001 0.040v-17.621l-104.491 100.139c-9.092 8.965-21.585 14.501-35.371 14.501s-26.279-5.536-35.376-14.506l0.006 0.006-459.563-440.405c-10.642-10.347-17.245-24.8-17.245-40.795 0-7.187 1.333-14.064 3.766-20.394l-0.131 0.389c7.227-20.557 26.381-35.071 48.956-35.285h73.413v-441.301c-0.006-0.232-0.010-0.505-0.010-0.778 0-16.802 13.396-30.476 30.091-30.922l0.041-0.001h251.733c16.736 0.447 30.132 14.121 30.132 30.923 0 0.274-0.004 0.547-0.011 0.819l0.001-0.040v267.947h148.011v-267.947c-0.006-0.232-0.010-0.505-0.010-0.778 0-16.802 13.396-30.476 30.091-30.922l0.041-0.001h251.733c16.736 0.447 30.132 14.121 30.132 30.923 0 0.274-0.004 0.547-0.011 0.819l0.001-0.040v441.301h73.387c22.6 0.214 41.755 14.728 48.869 34.919l0.112 0.366c2.366 6.019 3.738 12.989 3.738 20.279 0 15.857-6.49 30.199-16.958 40.514l-0.007 0.007zM868.053 472.363c-16.736-0.447-30.132-14.121-30.132-30.923 0-0.274 0.004-0.547 0.011-0.819l-0.001 0.040v-441.259h-191.573v267.947c0.006 0.232 0.010 0.505 0.010 0.778 0 16.802-13.396 30.476-30.091 30.922l-0.041 0.001h-208.341c-16.736-0.447-30.132-14.121-30.132-30.923 0-0.274 0.004-0.547 0.011-0.819l-0.001 0.040v-267.947h-191.616v441.259c0.006 0.232 0.010 0.505 0.010 0.778 0 16.802-13.396 30.476-30.091 30.922l-0.041 0.001h-83.499l439.467 421.333 149.675-143.488c5.216-5.094 12.358-8.237 20.234-8.237 4.425 0 8.618 0.992 12.369 2.765l-0.176-0.075c10.717 5.262 17.965 16.097 17.965 28.624 0 0.122-0.001 0.244-0.002 0.365v-0.018 57.685h148.011v-257.28c0-0.049 0-0.107 0-0.165 0-9.116 3.757-17.355 9.807-23.252l0.007-0.007 81.579-78.251z" />
<glyph unicode="&#xe904;" glyph-name="bottom-nav-orders" d="M1002.24 319.061h-214.144v487.339c-1.679 35.728-31.054 64.058-67.045 64.058-0.985 0-1.965-0.021-2.939-0.063l0.139 0.005h-161.109c-2.932 8.512-10.872 14.518-20.215 14.518-0.243 0-0.485-0.004-0.726-0.012l0.035 0.001h-54.187c-7.008 42.806-43.725 75.073-87.979 75.073s-80.971-32.267-87.909-74.557l-0.070-0.516h-54.059c-0.206 0.007-0.448 0.011-0.691 0.011-9.343 0-17.283-6.006-20.17-14.368l-0.045-0.15h-161.28c-0.836 0.037-1.815 0.058-2.8 0.058-35.991 0-65.366-28.331-67.039-63.908l-0.006-0.15v-761.899c1.679-35.728 31.054-64.058 67.045-64.058 0.985 0 1.965 0.021 2.939 0.063l-0.139-0.005h534.741v-24.619c0.484-11.162 9.651-20.029 20.888-20.029 0.307 0 0.612 0.007 0.915 0.020l-0.043-0.001h375.936c0.26-0.012 0.565-0.018 0.872-0.018 11.238 0 20.405 8.866 20.887 19.985l0.002 0.044v343.040c-0.414 11.22-9.61 20.158-20.893 20.158-0.32 0-0.638-0.007-0.954-0.021l0.045 0.002zM768.299 279.040h92.288v-86.101l-34.773 19.541c-3.266 1.842-7.17 2.927-11.328 2.927s-8.062-1.085-11.445-2.988l0.117 0.061-34.816-19.584zM744.619 806.4v-487.339h-51.456v444.672c-0.484 11.162-9.651 20.029-20.888 20.029-0.307 0-0.612-0.007-0.915-0.020l0.043 0.001h-113.451v46.635h160.299c0.354 0.018 0.768 0.028 1.185 0.028 13.471 0 24.475-10.563 25.18-23.858l0.003-0.063zM626.304 319.061c-0.26 0.012-0.565 0.018-0.872 0.018-11.238 0-20.405-8.866-20.887-19.985l-0.002-0.044v-192h-466.133v636.715h511.275v-424.704zM327.637 844.885c0.26-0.012 0.565-0.018 0.872-0.018 11.238 0 20.405 8.866 20.887 19.985l0.002 0.044v14.507c1.817 23.311 21.18 41.539 44.8 41.539s42.983-18.228 44.79-41.384l0.010-0.155v-14.507c0.484-11.162 9.651-20.029 20.888-20.029 0.307 0 0.612 0.007 0.915 0.020l-0.043-0.001h53.973v-61.141h-241.109v61.056zM69.845 20.608c-0.354-0.018-0.768-0.028-1.185-0.028-13.471 0-24.475 10.563-25.18 23.858l-0.003 0.063v761.899c0.708 13.358 11.712 23.921 25.183 23.921 0.417 0 0.831-0.010 1.243-0.030l-0.058 0.002h160.299v-46.549h-113.451c-0.26 0.012-0.565 0.018-0.872 0.018-11.238 0-20.405-8.866-20.887-19.985l-0.002-0.044v-676.48c0.484-11.162 9.651-20.029 20.888-20.029 0.307 0 0.612 0.007 0.915 0.020l-0.043-0.001h487.893v-46.635h-534.741zM980.523-24.021h-332.459v302.933h76.8v-121.771c0.132-7.636 4.567-14.205 10.978-17.399l0.115-0.052c3.090-1.61 6.748-2.554 10.626-2.554 4.166 0 8.077 1.089 11.464 2.999l-0.117-0.061 56.576 31.787 56.491-31.787c3.27-1.849 7.182-2.938 11.347-2.938 3.878 0 7.536 0.944 10.756 2.615l-0.13-0.061c6.526 3.246 10.961 9.815 11.093 17.433v121.916h76.8v-302.933zM330.624 692.053h-118.997c-12.018 0-21.76-9.742-21.76-21.76v0-118.059c0-12.018 9.742-21.76 21.76-21.76v0h118.997c12.018 0 21.76 9.742 21.76 21.76v0 118.059c0 12.018-9.742 21.76-21.76 21.76v0zM308.864 573.995h-75.477v74.368h75.477zM330.624 321.152h-118.997c-12.018 0-21.76-9.742-21.76-21.76v0-118.144c0-12.018 9.742-21.76 21.76-21.76v0h118.997c12.018 0 21.76 9.742 21.76 21.76v0 118.059c0 0.025 0 0.055 0 0.085 0 12.018-9.742 21.76-21.76 21.76 0 0 0 0 0 0v0zM308.864 203.093h-75.477v74.581h75.477zM330.624 506.581h-118.997c-12.018 0-21.76-9.742-21.76-21.76v0-118.016c0-12.018 9.742-21.76 21.76-21.76v0h118.997c12.018 0 21.76 9.742 21.76 21.76v0 118.016c0 12.018-9.742 21.76-21.76 21.76v0zM308.864 388.565h-75.477v74.539h75.477zM576.469 593.877h-142.976c-11.596-0.53-20.797-10.060-20.797-21.739s9.201-21.209 20.749-21.737l0.048-0.002h142.976c0.288-0.014 0.625-0.021 0.963-0.021 12.018 0 21.76 9.742 21.76 21.76s-9.742 21.76-21.76 21.76c-0.339 0-0.676-0.008-1.011-0.023l0.048 0.002zM576.469 675.925h-142.976c-11.596-0.53-20.797-10.060-20.797-21.739s9.201-21.209 20.749-21.737l0.048-0.002h142.976c11.596 0.53 20.797 10.060 20.797 21.739s-9.201 21.209-20.749 21.737l-0.048 0.002zM576.469 406.272h-142.976c-11.596-0.53-20.797-10.060-20.797-21.739s9.201-21.209 20.749-21.737l0.048-0.002h142.976c0.288-0.014 0.625-0.021 0.963-0.021 12.018 0 21.76 9.742 21.76 21.76s-9.742 21.76-21.76 21.76c-0.339 0-0.676-0.008-1.011-0.023l0.048 0.002zM576.469 488.363h-142.976c-11.596-0.53-20.797-10.060-20.797-21.739s9.201-21.209 20.749-21.737l0.048-0.002h142.976c0.288-0.014 0.625-0.021 0.963-0.021 12.018 0 21.76 9.742 21.76 21.76s-9.742 21.76-21.76 21.76c-0.339 0-0.676-0.008-1.011-0.023l0.048 0.002zM523.477 218.709h-89.984c-11.596-0.53-20.797-10.060-20.797-21.739s9.201-21.209 20.749-21.737l0.048-0.002h89.984c11.596 0.53 20.797 10.060 20.797 21.739s-9.201 21.209-20.749 21.737l-0.048 0.002zM523.477 300.629h-89.984c-11.596-0.53-20.797-10.060-20.797-21.739s9.201-21.209 20.749-21.737l0.048-0.002h89.984c11.596 0.53 20.797 10.060 20.797 21.739s-9.201 21.209-20.749 21.737l-0.048 0.002z" />
<glyph unicode="&#xe905;" glyph-name="caret-down-icov" horiz-adv-x="2048" d="M0 960l1024-1024 1024 1024z" />
<glyph unicode="&#xe906;" glyph-name="down-arrow" horiz-adv-x="2458" d="M2348.134 960l-1119.334-805.786-1119.334 805.786-109.466-140.186 1228.8-884.019 1228.8 884.019z" />
<glyph unicode="&#xe907;" glyph-name="facebook-icon" d="M1024 448c0 282.77-229.23 512-512 512s-512-229.23-512-512c0-282.77 229.23-512 512-512v0h9.003v398.677h-109.995v128h109.995v94.549c-0.49 4.613-0.77 9.965-0.77 15.382 0 85.043 68.941 153.984 153.984 153.984 3.935 0 7.835-0.148 11.695-0.437l-0.514 0.031c0.949 0.004 2.071 0.006 3.194 0.006 33.607 0 66.787-1.831 99.445-5.398l-4.037 0.358v-114.347h-67.2c-53.077 0-63.36-25.216-63.36-62.251v-81.664h126.933l-16.555-128h-110.507v-378.923c215.733 63.491 370.56 259.663 370.688 492.017v0.015zM529.365-63.659h-8.533z" />
<glyph unicode="&#xe908;" glyph-name="hamburger-icon" horiz-adv-x="1446" d="M103.243 755.2h1239.16c56.554 0 102.4 45.846 102.4 102.4s-45.846 102.4-102.4 102.4h-1239.16c-56.554 0-102.4-45.846-102.4-102.4s45.846-102.4 102.4-102.4v0zM1342.344 550.4h-1239.1c-56.554 0-102.4-45.846-102.4-102.4s45.846-102.4 102.4-102.4h1239.16c56.554 0 102.4 45.846 102.4 102.4s-45.846 102.4-102.4 102.4v0zM1342.344 140.8h-1239.1c-56.554 0-102.4-45.846-102.4-102.4s45.846-102.4 102.4-102.4h1239.16c56.554 0 102.4 45.846 102.4 102.4s-45.846 102.4-102.4 102.4v0z" />
<glyph unicode="&#xe909;" glyph-name="instagram-icon" d="M723.371 560.085v94.336h-12.203l-82.048-0.299 0.299-94.336zM509.483 342.229c53.862 0.194 97.45 43.903 97.45 97.791 0 54.009-43.783 97.792-97.792 97.792-53.889 0-97.597-43.588-97.791-97.431v-0.019c0-54.198 43.936-98.133 98.133-98.133v0zM512 960c-282.77 0-512-229.23-512-512s229.23-512 512-512c282.77 0 512 229.23 512 512v0c0 282.77-229.23 512-512 512v0zM787.797 497.408v-227.925c-0.097-59.358-48.202-107.447-107.556-107.52h-341.34c-59.371 0.049-107.49 48.153-107.563 107.513v341.34c0.049 59.386 48.177 107.514 107.558 107.563h341.338c59.376-0.073 107.49-48.187 107.563-107.556v-113.415zM661.675 440.192c0.001-0.19 0.001-0.415 0.001-0.639 0-84.053-68.139-152.192-152.192-152.192s-152.192 68.139-152.192 152.192c0 20.834 4.186 40.69 11.764 58.774l-0.373-1.004h-83.285v-227.925c0.049-29.442 23.927-53.291 53.376-53.291 0.015 0 0.030 0 0.045 0h341.331c29.445 0.024 53.309 23.888 53.333 53.331v227.885h-83.2c7.159-16.882 11.342-36.511 11.392-57.111v-0.019z" />
<glyph unicode="&#xe90a;" glyph-name="left-chevron" horiz-adv-x="559" d="M558.545 906.775l-52.899 53.225-505.647-512 505.647-512 52.899 53.225-453.027 458.775z" />
<glyph unicode="&#xe90b;" glyph-name="left-sidebar-icon" horiz-adv-x="664" d="M86.071 448l567.683 462.461c6.373 4.651 10.468 12.094 10.468 20.494s-4.094 15.843-10.396 20.444l-0.072 0.050c-6.898 5.298-15.655 8.491-25.157 8.491s-18.259-3.193-25.256-8.564l0.099 0.073-592.979-483.024c-6.373-4.651-10.468-12.094-10.468-20.494s4.094-15.843 10.396-20.444l0.072-0.050 592.979-482.858c6.772-5.349 15.432-8.58 24.847-8.58 0.022 0 0.043 0 0.065 0h-0.003c0.149-0.002 0.325-0.003 0.501-0.003 9.272 0 17.789 3.236 24.481 8.641l-0.074-0.058c6.373 4.651 10.468 12.094 10.468 20.494s-4.094 15.843-10.396 20.444l-0.072 0.050z" />
<glyph unicode="&#xe90c;" glyph-name="plus" d="M1024 374.869h-438.869v-438.869h-146.261v438.869h-438.869v146.261h438.869v438.869h146.304v-438.869h438.827z" />
<glyph unicode="&#xe910;" glyph-name="remove-basket" d="M810.667 686.507l-60.16 60.16-238.507-238.507-238.507 238.507-60.16-60.16 238.507-238.507-238.507-238.507 60.16-60.16 238.507 238.507 238.507-238.507 60.16 60.16-238.507 238.507z" />
<glyph unicode="&#xe911;" glyph-name="ringbell-icon" d="M418.901 33.536h186.197c0.054-1.19 0.085-2.585 0.085-3.987 0-51.464-41.72-93.184-93.184-93.184s-93.184 41.72-93.184 93.184c0 1.402 0.031 2.797 0.092 4.184l-0.007-0.197zM930.901 131.072v-48.768h-837.803v48.725l93.099 97.536v292.565c-0.025 1.528-0.039 3.33-0.039 5.135 0 149.278 96.429 276.033 230.396 321.373l2.39 0.702v14.123c-0.054 1.19-0.085 2.585-0.085 3.987 0 51.464 41.72 93.184 93.184 93.184s93.184-41.72 93.184-93.184c0-1.402-0.031-2.797-0.092-4.184l0.007 0.197v-14.123c136.356-46.043 232.786-172.798 232.786-322.075 0-1.806-0.014-3.608-0.042-5.407l0.003 0.272v-292.565l93.099-97.536zM744.789 521.131c0.040 1.62 0.062 3.528 0.062 5.442 0 129.726-103.588 235.259-232.56 238.392l-0.291 0.006c-129.244-3.163-232.808-108.686-232.808-238.397 0-1.899 0.022-3.792 0.066-5.681l-0.005 0.28v-341.333h465.493v341.333zM872.747 902.016l-66.133-69.291c76.933-80.399 124.291-189.649 124.291-309.96 0-0.53-0.001-1.059-0.003-1.588v0.082h93.099c0.005 0.854 0.008 1.864 0.008 2.874 0 146.614-57.625 279.77-151.462 378.052l0.201-0.212zM0 521.131h93.099c-0.002 0.447-0.003 0.977-0.003 1.507 0 120.311 47.357 229.561 124.448 310.126l-0.157-0.166-66.133 69.376c-93.636-98.071-151.262-231.226-151.262-377.841 0-1.055 0.003-2.11 0.009-3.164l-0.001 0.162z" />
<glyph unicode="&#xe912;" glyph-name="search-icon" d="M731.861 315.989h-46.251l-16.384 15.829c57.123 66.26 91.913 153.18 91.913 248.225 0 210.499-170.643 381.141-381.141 381.141s-381.141-170.643-381.141-381.141c0-210.499 170.643-381.141 381.141-381.141 95.045 0 181.965 34.79 248.72 92.33l-0.495-0.417 15.829-16.384v-46.251l292.693-292.181 87.253 87.253zM380.587 315.989c-145.509 0-263.467 117.958-263.467 263.467s117.958 263.467 263.467 263.467c145.509 0 263.467-117.958 263.467-263.467v0c0-0.101 0-0.221 0-0.342 0-145.32-117.805-263.125-263.125-263.125-0.135 0-0.27 0-0.405 0h0.021z" />
<glyph unicode="&#xe913;" glyph-name="search-suggestion-icn" d="M398.464 163.072c0.354-0.001 0.772-0.002 1.191-0.002 96.797 0 185.384 35.151 253.692 93.385l-0.547-0.455 309.248-309.248c6.559-6.537 15.607-10.578 25.6-10.578s19.041 4.041 25.601 10.579l-0.001-0.001c6.537 6.559 10.578 15.607 10.578 25.6s-4.041 19.041-10.579 25.601l-309.247 309.247c56.934 68.329 91.495 157.040 91.495 253.824 0 219.712-178.112 397.824-397.824 397.824s-397.824-178.112-397.824-397.824c0-219.712 178.112-397.824 397.824-397.824 0.219 0 0.437 0 0.656 0.001h-0.034zM398.464 887.552c0.025 0 0.055 0 0.085 0 180.054 0 326.016-145.962 326.016-326.016s-145.962-326.016-326.016-326.016c-180.054 0-326.016 145.962-326.016 326.016v0c0.243 179.909 146.022 325.688 325.908 325.931h0.023z" />
<glyph unicode="&#xe914;" glyph-name="trash-icon" horiz-adv-x="793" d="M56.617 49.763c0.055-62.633 50.674-113.426 113.235-113.763h453.036c62.594 0.337 113.212 51.13 113.268 113.758v682.683h-679.54zM195.914 454.805l79.839 80.202 120.634-120.568 120.039 120.601 79.839-80.202-120.039-120.601 120.039-120.766-79.839-80.202-120.039 120.733-120.039-120.601-79.839 80.070 120.039 120.601zM594.581 903.118l-56.617 56.882h-283.153l-56.617-56.882h-198.194v-113.796h792.774v113.796z" />
<glyph unicode="&#xe915;" glyph-name="user-icon" d="M512 960c-282.77 0-512-229.23-512-512s229.23-512 512-512c282.77 0 512 229.23 512 512v0c-0.34 282.633-229.366 511.66-511.967 512h-0.033zM512-4.011c-249.639 0-452.011 202.372-452.011 452.011s202.372 452.011 452.011 452.011c249.639 0 452.011-202.372 452.011-452.011v0c-0.291-249.521-202.489-451.719-451.983-452.011h-0.028zM512 420.011c115.983 0 210.005 94.023 210.005 210.005s-94.023 210.005-210.005 210.005c-115.983 0-210.005-94.023-210.005-210.005v0c0.121-115.934 94.071-209.884 209.994-210.005h0.012zM512 779.989c82.852 0 150.016-67.164 150.016-150.016s-67.164-150.016-150.016-150.016c-82.852 0-150.016 67.164-150.016 150.016v0c0.073 82.831 67.189 149.962 150.007 150.059h0.009zM849.28 289.152c-38.656 43.523-94.748 70.823-157.219 70.869h-360.072c-62.51-0.020-118.638-27.326-157.124-70.654l-0.188-0.215-14.208-16.085 10.624-18.645c68.744-119.334 195.594-198.379 340.907-198.379s272.162 79.045 339.898 196.483l1.009 1.896 10.624 18.645zM512 116.053c-115.019 0.143-216.35 58.613-276.023 147.414l-0.756 1.194c25.937 22.005 59.787 35.392 96.763 35.413h360.069c36.981-0.021 70.831-13.409 96.985-35.593l-0.217 0.179c-60.427-90.023-161.779-148.512-276.8-148.651h-0.021z" />
<glyph unicode="&#xe918;" glyph-name="password-hide" d="M632.704 569.003c-3.832 3.705-9.060 5.989-14.821 5.989-11.782 0-21.333-9.551-21.333-21.333 0-5.761 2.283-10.988 5.994-14.827l-0.006 0.006c24.109-23.308 39.077-55.941 39.077-92.069 0-70.692-57.308-128-128-128-36.128 0-68.761 14.968-92.034 39.041l-0.035 0.036c-3.885 4.018-9.323 6.513-15.345 6.513-11.782 0-21.333-9.551-21.333-21.333 0-6.021 2.495-11.46 6.507-15.339l0.006-0.006c31.078-32.145 74.587-52.103 122.759-52.103 94.257 0 170.667 76.41 170.667 170.667 0 48.171-19.957 91.681-52.055 122.712l-0.048 0.046zM541.781 616.064c-9.496 1.894-20.412 2.978-31.582 2.978-93.314 0-168.96-75.646-168.96-168.96 0-0.612 0.003-1.223 0.010-1.834l-0.001 0.093c0.106-10.63 1.189-20.938 3.161-30.927l-0.175 1.061c1.825-10.059 10.503-17.592 20.946-17.621h0.003c0.052-0.001 0.113-0.001 0.175-0.001 1.266 0 2.504 0.125 3.7 0.362l-0.12-0.020c9.969 1.922 17.397 10.577 17.397 20.967 0 1.321-0.12 2.613-0.35 3.868l0.020-0.131c-1.371 6.662-2.205 14.36-2.303 22.235l-0.001 0.080c-0.006 0.46-0.009 1.002-0.009 1.546 0 69.844 56.62 126.464 126.464 126.464 8.44 0 16.686-0.827 24.663-2.404l-0.803 0.132c0.873-0.127 1.882-0.199 2.907-0.199 11.782 0 21.333 9.551 21.333 21.333 0 10.182-7.133 18.698-16.674 20.823l-0.142 0.027zM1018.965 462.123c-78.658 88.645-170.995 162.96-274.122 220.191l-5.302 2.7c-2.844 1.499-6.215 2.379-9.792 2.379-11.788 0-21.344-9.556-21.344-21.344 0-8.211 4.637-15.34 11.435-18.909l0.117-0.056c97.977-54.423 181.769-120.578 253.475-198.079l0.605-0.662c-50.859-55.083-251.008-256-461.952-256-78.271 0.66-151.99 19.499-217.346 52.489l2.818-1.289c-2.499 1.111-5.414 1.758-8.48 1.758-11.782 0-21.333-9.551-21.333-21.333 0-8.108 4.523-15.159 11.183-18.768l0.113-0.056c67.941-34.422 148.037-54.84 232.84-55.465l0.205-0.001c262.869 0 497.067 273.067 506.923 284.885 3.126 3.687 5.028 8.5 5.028 13.756 0 5.28-1.918 10.111-5.095 13.836l0.025-0.030zM652.032 722.432c-41.613 15.009-89.637 23.962-139.669 24.573l-0.278 0.003c-262.869 0-497.067-273.067-506.923-284.885-3.133-3.689-5.038-8.507-5.038-13.769 0-4.573 1.439-8.81 3.888-12.283l-0.045 0.067c54.642-72.739 119.388-134.253 192.888-183.765l2.824-1.792c3.307-2.209 7.373-3.526 11.747-3.526 7.389 0 13.901 3.757 17.73 9.465l0.049 0.077c2.217 3.311 3.539 7.385 3.539 11.767 0 7.377-3.744 13.879-9.436 17.71l-0.076 0.048c-67.026 45.613-124.453 98.863-173.012 159.52l-1.196 1.546c49.109 53.333 250.581 257.152 463.061 257.152 45.454-0.627 88.811-8.75 129.167-23.185l-2.788 0.87c2.080-0.756 4.481-1.194 6.985-1.194 9.314 0 17.215 6.054 19.981 14.442l0.042 0.149c0.702 2.024 1.107 4.356 1.107 6.783 0 9.354-6.020 17.302-14.397 20.18l-0.15 0.045zM889.728 826.069c-3.86 3.859-9.193 6.246-15.083 6.246s-11.222-2.387-15.083-6.246l-725.333-725.333c-3.705-3.832-5.989-9.060-5.989-14.821 0-11.782 9.551-21.333 21.333-21.333 5.761 0 10.988 2.283 14.827 5.994l725.327 725.327c3.859 3.86 6.246 9.193 6.246 15.083s-2.387 11.222-6.246 15.083v0z" />
<glyph unicode="&#xe919;" glyph-name="password-show" d="M1020.203 460.117c-8.064 11.733-201.856 286.549-508.203 286.549-262.869 0-497.109-273.067-506.965-284.885-3.139-3.691-5.049-8.513-5.049-13.781s1.909-10.090 5.074-13.812l-0.025 0.030c9.856-11.648 244.096-284.885 506.965-284.885s497.109 273.067 506.965 284.885c3.127 3.688 5.029 8.501 5.029 13.758 0 4.541-1.419 8.751-3.837 12.21l0.046-0.069zM512 192c-210.731 0-411.093 200.96-461.995 256 50.816 55.083 250.965 256 461.995 256 246.571 0 420.608-200.533 463.104-254.848-49.237-53.291-250.581-257.152-463.104-257.152zM512 618.923c-94.398 0-170.923-76.525-170.923-170.923s76.525-170.923 170.923-170.923c94.398 0 170.923 76.525 170.923 170.923v0c-0.097 94.359-76.564 170.826-170.913 170.923h-0.009zM512 319.787c-70.692 0-128 57.308-128 128s57.308 128 128 128c70.692 0 128-57.308 128-128v0c-0.194-70.614-57.386-127.806-127.981-128h-0.019z" />
</font>
</defs>
</svg>
